<?xml version="1.0" standalone="no"?>
<!DOCTYPE svg PUBLIC "-//W3C//DTD SVG 20010904//EN"
 "http://www.w3.org/TR/2001/REC-SVG-20010904/DTD/svg10.dtd">
<svg version="1.0" xmlns="http://www.w3.org/2000/svg"
 width="780.000000pt" height="780.000000pt" viewBox="0 0 780.000000 780.000000"
 preserveAspectRatio="xMidYMid meet">
<metadata>
Created by potrace 1.14, written by Peter Selinger 2001-2017
</metadata>
<g transform="translate(0.000000,780.000000) scale(0.100000,-0.100000)"
fill="#000000" stroke="none">
<path d="M3528 6458 c-3 -11 -2 -5084 1 -5126 1 -10 78 -12 368 -10 l367 3 1
1088 c0 1066 0 1089 19 1103 16 11 81 14 354 14 297 0 335 -2 350 -17 15 -15
17 -95 17 -962 l1 -946 31 -65 c34 -74 82 -127 149 -166 87 -51 113 -53 732
-54 525 0 577 1 593 16 18 16 19 39 19 354 0 248 -3 339 -12 348 -9 9 -107 12
-378 12 -307 0 -369 2 -387 15 l-21 15 0 1069 c0 765 -4 1075 -12 1090 -11 21
-12 21 -719 21 -647 0 -710 1 -722 17 -12 13 -14 197 -15 1097 -1 595 -2 1084
-3 1089 -1 4 -165 7 -365 7 -282 0 -365 -3 -368 -12z"/>
<path d="M5025 6456 c-20 -14 -20 -27 -20 -724 0 -391 4 -714 8 -719 10 -9
649 -17 684 -8 12 3 25 14 28 26 4 11 7 331 7 710 -1 640 -2 692 -18 710 -16
18 -35 19 -343 19 -263 0 -330 -3 -346 -14z"/>
<path d="M2069 4238 c-9 -16 -12 -292 -12 -1085 1 -857 -2 -1066 -12 -1080
-12 -17 -42 -18 -379 -21 -362 -3 -366 -3 -377 -24 -8 -14 -11 -86 -10 -215 1
-106 1 -201 1 -210 -1 -97 1 -222 3 -237 8 -45 9 -46 581 -45 298 0 570 4 605
9 60 8 171 54 171 71 0 4 9 10 20 14 20 6 87 101 82 117 -1 4 2 8 7 8 7 0 22
43 25 75 1 6 4 15 7 20 3 6 5 594 5 1308 -1 1142 -3 1299 -16 1307 -9 6 -157
10 -352 10 -337 0 -337 0 -349 -22z"/>
</g>
</svg>
